{"title":"Tangled.2010.PROPER.720p.BRRip.x264.Feel-Free","uid":6264598,"size":2654318042,"categoryP":"video","categoryS":"hd___movies","magnet":"?xt=urn:btih:35d9b71da6710705c085524f0c08ed3551a1294b&amp;dn=Tangled.2010.PROPER.720p.BRRip.x264.Feel-Free&amp;tr=udp%3A%2F%2Ftracker.openbittorrent.com%3A80&amp;tr=udp%3A%2F%2Fopen.demonii.com%3A1337&amp;tr=udp%3A%2F%2Ftracker.coppersurfer.tk%3A6969&amp;tr=udp%3A%2F%2Fexodus.desync.com%3A6969","seeders":1,"leechers":0,"uploader":"qwersd","files":11,"time":1300867744,"description":"Genre:Animation | Comedy | Family\nLanguage:English\nIMDb:http://www.imdb.com/title/tt0398286/\nSource:PROPER.1080p.BluRay.x264-CiNEFiLE\nSubtitles:Romana\n\n\nFormat : MPEG-4\nFormat profile : Base Media\nCodec ID : isom\nFile size : 2.46 GiB\nDuration : 1h 40mn\nOverall bit rate : 3 518 Kbps\n\nVideo\nFormat profile : &lt;a class=&quot;__cf_email__&quot; href=&quot;/cdn-cgi/l/email-protection&quot; data-cfemail=&quot;642c0d030c2428504a55&quot;&gt;[email&amp;#160;protected]&lt;/a&gt;&lt;script cf-hash='f9e31' type=&quot;text/javascript&quot;&gt;\n/* &lt;![CDATA[ */!function(){try{var t=&quot;currentScript&quot;in document?document.currentScript:function(){for(var t=document.getElementsByTagName(&quot;script&quot;),e=t.length;e--;)if(t[e].getAttribute(&quot;cf-hash&quot;))return t[e]}();if(t&amp;&amp;t.previousSibling){var e,r,n,i,c=t.previousSibling,a=c.getAttribute(&quot;data-cfemail&quot;);if(a){for(e=&quot;&quot;,r=parseInt(a.substr(0,2),16),n=2;a.length-n;n+=2)i=parseInt(a.substr(n,2),16)^r,e+=String.fromCharCode(i);e=document.createTextNode(e),c.parentNode.replaceChild(e,c)}}}catch(u){}}();/* ]]&gt; */&lt;/script&gt;\nFormat settings, CABAC : Yes\nFormat settings, ReFrames : 3 frames\nCodec ID : avc1\nCodec ID/Info : Advanced Video Coding\nDuration : 1h 40mn\nBit rate mode : Variable\nBit rate : 3 054 Kbps\nMaximum bit rate : 16.6 Mbps\nWidth : 1 280 pixels\nHeight : 720 pixels\nDisplay aspect ratio : 16:9\nFrame rate mode : Constant\nFrame rate : 23.976 fps\nColor space : YUV\nChroma subsampling : 4:2:0\nBit depth : 8 bits\nScan type : Progressive\nBits/(Pixel*Frame) : 0.138\nStream size : 2.15 GiB (87%)\nWriting library : x264 \n\nAudio\nID : 2\nFormat : AAC\nFormat/Info : Advanced Audio Codec\nFormat version : Version 4\nFormat profile : LC\nFormat settings, SBR : No\nCodec ID : 40\nDuration : 1h 40mn\nBit rate mode : Variable\nBit rate : 446 Kbps\nMaximum bit rate : 546 Kbps\nChannel(s) : 6 channels\nChannel positions : Front: L C R, Side: L R, LFE\nSampling rate : 48.0 KHz\nStream size : 320 MiB (13%)\n\n\nPlot:\nThe long-haired Princess Rapunzel has spent her entire life in a tower, but when she falls in love with a bandit who was passing by she must venture into the outside world for the first time to find him.\n &lt;a href=&quot;\nhttp://www.pix2links.com/images/56243399627443321682.png&quot; rel=&quot;nofollow&quot; target=&quot;_NEW&quot;&gt;\nhttp://www.pix2links.com/images/56243399627443321682.png&lt;/a&gt; &lt;a href=&quot;\nhttp://www.pix2links.com/images/19635404389366784959.png&quot; rel=&quot;nofollow&quot; target=&quot;_NEW&quot;&gt;\nhttp://www.pix2links.com/images/19635404389366784959.png&lt;/a&gt; &lt;a href=&quot;\nhttp://www.pix2links.com/images/39120293597162254920.png&quot; rel=&quot;nofollow&quot; target=&quot;_NEW&quot;&gt;\nhttp://www.pix2links.com/images/39120293597162254920.png&lt;/a&gt; &lt;a href=&quot;\nhttp://www.pix2links.com/images/74939276934904243905.png&quot; rel=&quot;nofollow&quot; target=&quot;_NEW&quot;&gt;\nhttp://www.pix2links.com/images/74939276934904243905.png&lt;/a&gt;\n\nGreets:\n\nINK,CRYS,IMAGINE,LKRG,FXG,3Li,FLAWL3SS,TA,iLLUSiON,ViSiON,DTRG SAFCuk009,LU,TheFalcon007,MYSTiC,PrisM,Noir,WBZ,LAP,Rx,Kingdom,SAFCuk009+Fabreezy,HDLiTE,TWiZTED,ExtraTorrentRG.ELEKTRI4KA,MAGNAT,CM8\nAnd to all the other p2p grps past and present ","torrent":{"xt":"urn:btih:35d9b71da6710705c085524f0c08ed3551a1294b","amp;dn":"Tangled.2010.PROPER.720p.BRRip.x264.Feel-Free","amp;tr":["udp%3A%2F%2Ftracker.openbittorrent.com%3A80","udp%3A%2F%2Fopen.demonii.com%3A1337","udp%3A%2F%2Ftracker.coppersurfer.tk%3A6969","udp%3A%2F%2Fexodus.desync.com%3A6969"],"infoHash":"35d9b71da6710705c085524f0c08ed3551a1294b","infoHashBuffer":{"type":"Buffer","data":[53,217,183,29,166,113,7,5,192,133,82,79,12,8,237,53,81,161,41,75]},"announce":[],"urlList":[]}}